<svg width="45" height="45" viewBox="0 0 45 45" fill="none" xmlns="http://www.w3.org/2000/svg">
<path d="M16.3125 14.25C9.4375 19.75 8.75 27.3125 14.25 36.9375M28.6875 30.75C35.5625 25.25 36.25 17.8355 30.75 8.21053M22.5 6C18.1239 6 13.9271 7.73839 10.8327 10.8327C7.73839 13.9271 6 18.1239 6 22.5C6 26.8761 7.73839 31.0729 10.8327 34.1673C13.9271 37.2616 18.1239 39 22.5 39C26.8761 39 31.0729 37.2616 34.1673 34.1673C37.2616 31.0729 39 26.8761 39 22.5C39 18.1239 37.2616 13.9271 34.1673 10.8327C31.0729 7.73839 26.8761 6 22.5 6ZM22.5 12.1875C19.765 12.1875 17.1419 13.274 15.208 15.208C13.274 17.1419 12.1875 19.765 12.1875 22.5C12.1875 25.235 13.274 27.8581 15.208 29.792C17.1419 31.726 19.765 32.8125 22.5 32.8125C25.235 32.8125 27.8581 31.726 29.792 29.792C31.726 27.8581 32.8125 25.235 32.8125 22.5C32.8125 19.765 31.726 17.1419 29.792 15.208C27.8581 13.274 25.235 12.1875 22.5 12.1875Z" stroke="url(#paint0_linear_8379_22374)" stroke-width="1.95" stroke-linejoin="round"/>
<defs>
<linearGradient id="paint0_linear_8379_22374" x1="22.5" y1="-10.5121" x2="55.5241" y2="22.4638" gradientUnits="userSpaceOnUse">
<stop stop-color="#604BFF"/>
<stop offset="1" stop-color="#35E6BB"/>
</linearGradient>
</defs>
</svg>
