<svg width="45" height="45" viewBox="0 0 45 45" fill="none" xmlns="http://www.w3.org/2000/svg">
<g clip-path="url(#clip0_101_7)">
<path d="M0 22.5C0 34.9264 10.0736 45 22.5 45C34.9264 45 45 34.9264 45 22.5C45 10.0736 34.9264 0 22.5 0C10.0736 0 0 10.0736 0 22.5Z" fill="url(#paint0_radial_101_7)"/>
<path d="M25.992 29L23.004 23.87H21.024V29H19.386V16.454H23.436C24.384 16.454 25.182 16.616 25.83 16.94C26.49 17.264 26.982 17.702 27.306 18.254C27.63 18.806 27.792 19.436 27.792 20.144C27.792 21.008 27.54 21.77 27.036 22.43C26.544 23.09 25.8 23.528 24.804 23.744L27.954 29H25.992ZM21.024 22.556H23.436C24.324 22.556 24.99 22.34 25.434 21.908C25.878 21.464 26.1 20.876 26.1 20.144C26.1 19.4 25.878 18.824 25.434 18.416C25.002 18.008 24.336 17.804 23.436 17.804H21.024V22.556Z" fill="white"/>
</g>
<defs>
<radialGradient id="paint0_radial_101_7" cx="0" cy="0" r="1" gradientUnits="userSpaceOnUse" gradientTransform="translate(22.5 11) rotate(-90) scale(11)">
<stop stop-color="#0252CD"/>
<stop offset="1" stop-color="#0252CD" stop-opacity="0.33"/>
</radialGradient>
<clipPath id="clip0_101_7">
<rect width="45" height="45" fill="white"/>
</clipPath>
</defs>
</svg>
