<?xml version="1.0" encoding="utf-8"?>
<!-- Generator: Adobe Illustrator 25.4.1, SVG Export Plug-In . SVG Version: 6.00 Build 0)  -->
<svg version="1.1" id="Layer_1" xmlns="http://www.w3.org/2000/svg" xmlns:xlink="http://www.w3.org/1999/xlink" x="0px" y="0px"
	 viewBox="0 0 176 34" style="enable-background:new 0 0 176 34;" xml:space="preserve">
<style type="text/css">
	.st0{fill:#4F245E;}
</style>
<g id="Layer_1_1_">
	<g>
		<path class="st0" d="M141.8,5.6c0.6,0,1.4-0.5,1.4-1.6c0-0.8-0.6-1.6-1.4-1.6c-0.8,0-1.4,0.8-1.4,1.6C140.4,5,141.2,5.6,141.8,5.6
			"/>
		<g>
			<polygon class="st0" points="45.4,30.2 42.3,26.1 41.3,26.1 41.3,32 42.3,32 42.3,27.8 45.6,32 46.4,32 46.4,26.1 45.4,26.1 			
				"/>
		</g>
		<g>
			<rect x="85.1" y="25.7" class="st0" width="0.8" height="6.7"/>
		</g>
		<g>
			<polygon class="st0" points="95.4,28.9 93.7,26.1 92.6,26.1 92.6,32 93.6,32 93.6,27.8 95.4,30.5 95.4,30.5 97.3,27.8 97.3,32 
				98.3,32 98.3,26.1 97.2,26.1 			"/>
		</g>
		<path class="st0" d="M35.1,29v-2h1.5c0.8,0,1.2,0.3,1.2,1v0c0,0.6-0.5,1-1.2,1H35.1z M38.8,28L38.8,28c0-0.5-0.2-1-0.5-1.3
			c-0.4-0.4-1-0.6-1.7-0.6h-2.6V32h1v-2h1.3l1.4,2H39l-1.6-2.2C38.3,29.5,38.8,29,38.8,28"/>
		<g>
			<rect x="49.2" y="26.1" class="st0" width="1" height="5.8"/>
		</g>
		<path class="st0" d="M68.1,29v-2h1.5c0.8,0,1.2,0.3,1.2,1v0c0,0.6-0.5,1-1.2,1H68.1z M71.9,28L71.9,28c0-0.5-0.2-1-0.5-1.3
			c-0.4-0.4-0.9-0.6-1.7-0.6h-2.6V32h1v-2h1.3l1.4,2h1.2l-1.6-2.2C71.3,29.5,71.9,29,71.9,28"/>
		<g>
			<path class="st0" d="M63.4,29.5c0,1.1-0.6,1.6-1.5,1.6c-0.9,0-1.5-0.6-1.5-1.7v-3.3h-1v3.4c0,1.7,1,2.6,2.5,2.6
				c1.5,0,2.5-0.9,2.5-2.6v-3.3h-1C63.4,26.1,63.4,29.5,63.4,29.5z"/>
		</g>
		<g>
			<path class="st0" d="M30.3,29.5c0,1.1-0.6,1.6-1.5,1.6c-0.9,0-1.5-0.6-1.5-1.7v-3.3h-1v3.4c0,1.7,1,2.6,2.5,2.6
				c1.5,0,2.5-0.9,2.5-2.6v-3.3h-1C30.3,26.1,30.3,29.5,30.3,29.5z"/>
		</g>
		<g>
			<polygon class="st0" points="75.4,29.5 78.3,29.5 78.3,28.6 75.4,28.6 75.4,27.1 78.7,27.1 78.7,26.1 74.4,26.1 74.4,32 78.8,32 
				78.8,31.1 75.4,31.1 			"/>
		</g>
		<g>
			<polygon class="st0" points="19.8,32 20.8,32 20.8,29.6 23.8,29.6 23.8,28.7 20.8,28.7 20.8,27.1 24.2,27.1 24.2,26.1 19.8,26.1 
							"/>
		</g>
		<g>
			<polygon class="st0" points="52.5,27.1 54.3,27.1 54.3,32 55.4,32 55.4,27.1 57.2,27.1 57.2,26.1 52.5,26.1 			"/>
		</g>
		<g>
			<polygon class="st0" points="107.6,27.1 109.5,27.1 109.5,32 110.5,32 110.5,27.1 112.3,27.1 112.3,26.1 107.6,26.1 			"/>
		</g>
		<path class="st0" d="M137.7,28.6c-1.1-0.3-1.4-0.5-1.4-0.9v0c0-0.4,0.4-0.7,0.9-0.7c0.5,0,1.1,0.2,1.6,0.6l0.6-0.8
			c-0.6-0.5-1.3-0.7-2.1-0.7c-1.2,0-2,0.7-2,1.7v0c0,1.1,0.7,1.4,1.9,1.7c1.1,0.2,1.3,0.5,1.3,0.9v0c0,0.4-0.4,0.7-1,0.7
			c-0.7,0-1.3-0.3-1.8-0.8l-0.6,0.7c0.7,0.6,1.5,0.9,2.4,0.9c1.2,0,2.1-0.6,2.1-1.7v0C139.6,29.3,138.9,28.9,137.7,28.6"/>
		<path class="st0" d="M122.3,29v-2h1.5c0.8,0,1.2,0.3,1.2,1v0c0,0.6-0.5,1-1.2,1C123.8,29,122.3,29,122.3,29z M126.1,28L126.1,28
			c0-0.5-0.2-1-0.5-1.3c-0.4-0.4-0.9-0.6-1.7-0.6h-2.6V32h1v-2h1.3l1.4,2h1.2l-1.6-2.2C125.5,29.5,126.1,29,126.1,28"/>
		<path class="st0" d="M144.2,28.6c-1.1-0.3-1.4-0.5-1.4-0.9v0c0-0.4,0.4-0.7,0.9-0.7c0.5,0,1.1,0.2,1.6,0.6l0.6-0.8
			c-0.6-0.5-1.3-0.7-2.1-0.7c-1.2,0-2,0.7-2,1.7v0c0,1.1,0.7,1.4,1.9,1.7c1.1,0.2,1.3,0.5,1.3,0.9v0c0,0.4-0.4,0.7-1,0.7
			c-0.7,0-1.3-0.3-1.8-0.8l-0.6,0.7c0.7,0.6,1.5,0.9,2.4,0.9c1.2,0,2.1-0.6,2.1-1.7v0C146.1,29.3,145.5,28.9,144.2,28.6"/>
		<g>
			<polygon class="st0" points="129.6,29.5 132.5,29.5 132.5,28.6 129.6,28.6 129.6,27.1 132.9,27.1 132.9,26.1 128.6,26.1 
				128.6,32 133,32 133,31.1 129.6,31.1 			"/>
		</g>
		<path class="st0" d="M157.7,28.6c-1.1-0.3-1.4-0.5-1.4-0.9v0c0-0.4,0.4-0.7,0.9-0.7c0.5,0,1.1,0.2,1.6,0.6l0.6-0.8
			c-0.6-0.5-1.3-0.7-2.1-0.7c-1.2,0-2,0.7-2,1.7v0c0,1.1,0.7,1.4,1.9,1.7c1.1,0.2,1.3,0.5,1.3,0.9v0c0,0.4-0.4,0.7-1,0.7
			c-0.7,0-1.3-0.3-1.8-0.8l-0.6,0.7c0.7,0.6,1.5,0.9,2.4,0.9c1.2,0,2.1-0.6,2.1-1.7v0C159.5,29.3,158.9,28.9,157.7,28.6"/>
		<g>
			<path class="st0" d="M102.5,29.7l1-2.3l1,2.3H102.5z M103.1,26.1l-2.6,5.9h1.1l0.6-1.4h2.8l0.6,1.4h1.1l-2.6-5.9
				C104,26.1,103.1,26.1,103.1,26.1z"/>
		</g>
		<g>
			<polygon class="st0" points="149.6,29.5 152.5,29.5 152.5,28.6 149.6,28.6 149.6,27.1 152.9,27.1 152.9,26.1 148.6,26.1 
				148.6,32 152.9,32 152.9,31.1 149.6,31.1 			"/>
		</g>
		<g>
			<polygon class="st0" points="114.4,27.1 116.2,27.1 116.2,32 117.2,32 117.2,27.1 119.1,27.1 119.1,26.1 114.4,26.1 			"/>
		</g>
		<path class="st0" d="M167.8,27.8v-0.6h0.4c0.3,0,0.5,0.1,0.5,0.3c0,0.3-0.2,0.3-0.5,0.3H167.8z M169,27.5c0-0.4-0.2-0.6-0.7-0.6
			h-0.8v2.1h0.3V28h0.3l0.5,0.9h0.4l-0.6-0.9C168.8,28,169,27.8,169,27.5"/>
		<path class="st0" d="M168.2,29.4c-0.8,0-1.4-0.6-1.4-1.5c0-0.8,0.6-1.5,1.4-1.5c0.8,0,1.4,0.6,1.4,1.5
			C169.6,28.7,169,29.4,168.2,29.4 M168.2,26.1c-1,0-1.8,0.8-1.8,1.8c0,1,0.8,1.8,1.8,1.8c1,0,1.8-0.8,1.8-1.8
			C170,26.9,169.2,26.1,168.2,26.1"/>
		<path class="st0" d="M88.5,17.4c-0.7,0-2.1-0.4-2.1-2.5c0-1.8,0.7-2.7,1.4-3.5c0.2,0.4,1.7,3.2,2.8,4.8
			C90,16.9,89.7,17.4,88.5,17.4 M88.9,3.2c1.1-0.1,1.3,1.3,1.3,2.9c0,0.6-0.2,1.2-0.5,1.7c-0.4,0.7-0.8,1.1-0.8,1.1
			s-0.2-0.5-0.6-1.2c-0.2-0.5-0.4-1-0.5-1.6C87.5,4.5,88.1,3.2,88.9,3.2 M96,18.2c-0.2-0.2-0.5-0.4-0.7-0.6c-1,0.6-1,0.6-2.9-2.6
			c0-0.1,1.2-3.2,1.3-3.4c0.1-0.2,0.4-0.9,0.6-1.1c0.3-0.3,0.6-0.4,0.6-0.4s0,0.6,0,0.7c0,0.1,0,1,1.1,1.1c1,0,1.3-1.1,1.3-1.4
			c0.1-0.6-0.5-2.1-1.7-2c-1.3,0-1.7,0.7-1.9,0.9c-0.9,1.4-1.5,3.2-2,4.3c0,0-1.9-3.3-2.1-3.8C92,7.7,92,5.9,92,5
			c0-0.5-0.3-1.3-0.8-1.8c-0.6-0.7-1.4-1-2.2-1c-1.7,0.1-2.4,1.7-2.4,1.7S85.7,5.3,86,7.2c0.1,1.1,1,2.5,1.3,3.2
			c-1.4,1-2.3,2.1-2.8,3.4c-0.2,0.5-0.5,2.1,0.1,3.3c0.6,1,1.7,1.9,3.3,1.9c1.4,0.1,2.2-0.6,2.6-0.9c0.3-0.3,0.8-0.9,1-1.2
			C93.4,19.9,95.1,19,96,18.2"/>
		<path class="st0" d="M58,14.2c-0.1,0.9-0.2,1.8-0.7,2.5c0,0,0,0,0,0c-0.2,0.4-0.5,0.7-0.8,0.9c-0.5,0.3-1.2,0.4-1.8,0.2
			c-0.9-0.3-1.4-1.2-1.7-2c-0.3-1.2-0.4-2.4-0.3-3.6c0.1-1.1,0.3-2.2,1-3.1c0.1-0.2,0.3-0.3,0.4-0.4c0.5-0.4,1.1-0.5,1.6-0.4
			C56.5,8.4,57,9,57.3,9.5c0,0,0,0,0,0c0.3,0.6,0.5,1.3,0.6,2C58.1,12.4,58.1,13.3,58,14.2 M60.1,11.2c-0.4-1.3-1.2-2.5-2.4-3.2
			c-0.6-0.4-1.2-0.6-1.9-0.7c-0.7-0.1-1.3,0-2,0.3c-0.8,0.3-1.5,0.9-2.1,1.5c-0.8,0.9-1.2,2.1-1.3,3.3c-0.1,1.4,0.1,2.9,0.8,4.1
			c0.7,1.2,1.8,2,3.1,2.3c1.4,0.3,2.9,0,3.9-0.9c1.1-0.9,1.8-2.2,2-3.6C60.4,13.2,60.4,12.2,60.1,11.2"/>
		<path class="st0" d="M54.2,8.6C54.1,8.6,54.2,8.6,54.2,8.6"/>
		<g>
			<path class="st0" d="M29.6,8.5c0,0,0.5,0,0.7,0c0,0,0.2,0,0.3,0.1c0,0,0.2,0.1,0.2,0.4c0,0.3-0.3,1.2-0.3,1.2L28.8,15l-1.7-5
				c0,0-0.1-0.3-0.1-0.4c0-0.1-0.1-0.3-0.1-0.5c0-0.3,0.1-0.4,0.2-0.4c0.1-0.1,0.3-0.2,0.8-0.2V7.5l-4.3,0v0.9c0,0,0.2,0,0.2,0
				c0.2,0,0.4,0.1,0.4,0.1s0.2,0.2,0.4,0.5c0.1,0.1,0.2,0.5,0.4,1c0,0.1,2.5,7.2,2.5,7.2c0.1,0.4,0.1,1.1-0.2,2.1
				c-0.2,0.7-0.4,1-0.4,1s-0.1,0.2-0.3,0.4c-0.2,0.2-0.3,0.3-0.5,0.3c-0.2,0.1-1,0.1-1,0.1s-0.8,0-1.1,0.3c-0.2,0.2-0.3,0.5-0.3,0.9
				c0,0.2,0.1,0.5,0.4,0.7c0.1,0.1,0.4,0.2,0.6,0.2c1,0,1.5-0.6,1.8-0.9c0.7-0.7,1.3-1.7,2-3.2c0.4-0.9,0.7-1.7,0.9-2.4
				c0.1-0.2,2.6-7.7,2.7-7.9c0.1-0.3,0.2-0.5,0.3-0.5c0.2-0.1,0.5-0.1,0.5-0.1V7.5h-3.2C29.6,7.5,29.6,8.5,29.6,8.5z"/>
		</g>
		<path class="st0" d="M20,16.3c0,0-0.7,1.2-1.9,1.2c-0.6,0-0.9-0.5-0.9-0.5c-0.5-0.9-0.1-2,0.2-2.4c0.1-0.2,0.3-0.5,0.8-0.8
			c0.4-0.3,1.1-0.6,1.8-1C19.9,12.7,19.9,16.3,20,16.3z M22,19c1.2,0,1.8-1.4,1.9-1.7c-0.1-0.1-0.3-0.2-0.4-0.3
			c-0.1,0.2-0.3,0.3-0.4,0.4c-0.2,0.1-0.4,0.1-0.5,0c-0.4-0.2-0.3-1.1-0.3-1.1v-6.2c0-0.5-0.1-1.5-0.8-2.1c-0.8-0.7-2-0.8-2.8-0.8
			c-1.1,0-2.1,0.4-2.1,0.4c-0.3,0.2-1,0.5-1.4,1.1c-0.2,0.4-0.3,0.7-0.2,1.2c0,0.2,0.2,0.6,0.6,0.7c0.4,0.1,0.7,0,1-0.3
			c0.4-0.6,0.2-0.8,0.4-1.4c0.4-0.8,1.6-0.6,1.6-0.6s0.8-0.1,1.2,0.4C19.9,9,20,9.6,20,9.6v2c-2.4,1.1-3.6,1.9-4.4,2.7
			c-0.3,0.3-1,1.2-0.9,2.7c0.1,1.5,1.2,1.9,1.6,1.9c0.5,0.1,1.7,0,2.5-0.3c0.6-0.2,1-0.6,1.5-1C20.6,18.5,20.9,18.9,22,19"/>
		<path class="st0" d="M8.5,8.7c-0.9,2-3.1,1.7-3.5,1.7V3.5c0,0,1.7-0.2,2.9,0.7C9.8,5.7,8.6,8.6,8.5,8.7 M14.5,20.1
			c-0.6-0.2-1.3-1.3-1.4-1.7c-0.2-0.4-0.3-0.8-0.6-2.3c-0.2-1.7-0.8-2.9-0.8-2.9s-0.4-0.8-1.1-1.5c-0.4-0.4-1-0.7-1.5-0.9
			c1.6-0.8,2.2-1.7,2.4-2.7c0.1-0.5,0.2-1.1,0.2-1.7c0-1-0.4-2.4-1.2-3.1C10.1,3,8.9,2.1,6.7,2.1C6.3,2.1,3.9,2.3,3,2.3
			c-0.6,0-2-0.1-2-0.1v1.1c0.8,0,0.9,0,1.3,0.1c0.1,0,0.2,0,0.2,0s0.1,0.1,0.2,0.2C2.7,3.7,2.7,3.9,2.7,4c0,0,0,0,0,0.1v11.1
			c0,0.7,0,1.3-0.2,1.7c-0.3,0.5-1.2,0.4-1.6,0.4v1.2h6v-1.2c-0.7,0-1.2,0-1.6-0.4c-0.2-0.2-0.3-0.6-0.3-0.6S5,15.8,5,15.3v-3.9h1.5
			c0,0,0.3,0,0.6,0c0.2,0,0.4,0,0.9,0.2c0.3,0.1,0.6,0.4,0.7,0.6c0.5,0.7,0.6,1.2,0.7,1.6c0.2,0.6,0.3,1.5,0.3,1.5s0.2,1.4,0.3,1.6
			c0.1,0.4,0.3,1,0.6,1.5c0.2,0.4,0.6,1.2,1.7,2c0.9,0.7,2.3,1.2,4.7,0.6c-0.1-0.1-0.6-0.9-0.6-0.9S15.5,20.5,14.5,20.1"/>
		<g>
			<path class="st0" d="M40.9,16.3c0,0.3,0,0.6-0.1,0.6c-0.2,0.7-0.6,0.8-0.8,0.8v0.9H44v-0.9c-0.5,0-0.7-0.4-0.8-0.8
				c0-0.1-0.1-0.5-0.1-0.7v-4.1c0-0.6,0-3.4,1.8-3.5c1.9,0.1,1.7,3.5,1.7,3.5v4.1c0,0,0,0.4-0.1,0.7s-0.2,0.7-0.8,0.8v0.8h3.9v-0.9
				c-0.3-0.1-0.5-0.2-0.6-0.5c-0.2-0.3-0.2-1-0.2-1v-5.2c0,0,0-1.1-0.3-2.1c-0.2-0.5-0.9-1.9-2.9-1.9c-1.5,0.1-2.5,1-3.2,1.8
				c0,0-1.1-1.8-2.9-1.8c-0.6,0-1,0.2-1.4,0.4c-0.4,0.2-0.8,0.6-1,0.9c0-0.1-0.1-1.2-0.2-1.3C35.3,8,34.2,8,34.2,8v0.8
				c0,0,0.3,0,0.3,0s0.3,0.1,0.3,0.3c0.1,0.1,0.2,0.3,0.3,1c0,0,0,0.5,0,1v5.1c0,0,0.1,0.6-0.2,1.1c-0.2,0.2-0.3,0.4-0.6,0.4v0.9
				h3.9v-0.9c0,0-0.4,0-0.6-0.4c-0.2-0.4-0.2-1-0.2-1v-4.1c0-2,0.6-3.4,1.8-3.5c0.6,0.1,1.8,0.6,1.7,3.5L40.9,16.3L40.9,16.3z"/>
		</g>
		<path class="st0" d="M68.4,17.3c0,0.2,0.3,1.7,0.3,1.7l3-1v-0.8c-0.6,0.1-0.9,0-1.1-0.2c-0.2-0.2-0.2-0.7-0.2-0.7l0-1V7.5h-3.2
			v0.9c0.3,0,0.5,0.1,0.7,0.2c0.2,0.1,0.2,0.5,0.2,0.5s0.1,0.4,0,1v4.1c0,0.6,0,1.3-0.4,2.1c-0.4,1-1.5,1.3-1.5,1.3
			s-1.5,0.5-1.9-1.3c0-0.2-0.1-1-0.1-1V7.5h-3.4v0.9c0,0,0.6,0,0.9,0.2C62,8.8,62,9.1,62,9.1s0.1,0.6,0.1,1v5.2
			c0,1.6,0.4,3.7,3.1,3.7C66.5,19,67.2,18.6,68.4,17.3"/>
		<path class="st0" d="M78.5,7.2c-1.5,0.2-1.7,0.7-2.3,1.4c0-0.1-0.3-1.4-0.3-1.4S74.3,7.9,73,8v0.8c0.4,0,0.7,0,0.7,0.1
			c0.5,0.3,0.5,1.2,0.5,1.2s0,0.9,0,1v5.2c0,0,0,0.9-0.2,1.1c0,0.1-0.2,0.4-0.8,0.4v0.8h4.5v-0.8c-0.7,0-0.9-0.4-1-0.4
			c-0.1-0.1-0.2-0.5-0.2-1v-4.7c0,0,0-2.7,1.4-2.8c0.3-0.1,0.5,0,0.7,0.2c0.1,0.1,0.2,0.3,0.2,0.5c0.1,0.2,0.5,0.5,1,0.4
			c0.2,0,0.9-0.4,0.7-1.4C80.6,8.2,80.1,7.1,78.5,7.2"/>
		<path class="st0" d="M160.8,16.3c0,0-0.7,1.2-1.9,1.2c-0.6,0-0.9-0.5-0.9-0.5c-0.5-0.9-0.1-2,0.2-2.4c0.1-0.2,0.3-0.5,0.8-0.8
			c0.4-0.3,1.1-0.6,1.8-1L160.8,16.3L160.8,16.3z M163.9,17.4c-0.2,0.1-0.4,0.1-0.5,0c-0.4-0.2-0.3-1.1-0.3-1.1v-6.2
			c0-0.5-0.1-1.5-0.8-2.1c-0.8-0.7-2-0.8-2.8-0.8c-1.1,0-2.1,0.4-2.1,0.4c-0.3,0.2-1,0.5-1.4,1.1c-0.2,0.4-0.3,0.7-0.2,1.2
			c0,0.2,0.2,0.6,0.6,0.7c0.4,0.1,0.7,0,1-0.3c0.4-0.6,0.2-0.8,0.4-1.4c0.4-0.8,1.6-0.6,1.6-0.6s0.8-0.1,1.2,0.4
			c0.2,0.2,0.2,0.8,0.2,0.8v2c-2.4,1.1-3.6,1.9-4.4,2.7c-0.3,0.3-1,1.2-0.9,2.7c0.1,1.5,1.2,1.9,1.6,1.9c0.5,0.1,1.7,0,2.5-0.3
			c0.6-0.2,1-0.6,1.5-1c0.3,0.9,0.6,1.4,1.7,1.4c1.2,0,1.8-1.4,1.9-1.7c-0.1-0.1-0.3-0.2-0.4-0.3C164.1,17.2,164,17.3,163.9,17.4"/>
		<path class="st0" d="M123.9,16.3c0,0-0.7,1.2-1.9,1.2c-0.6,0-0.9-0.5-0.9-0.5c-0.5-0.9-0.1-2,0.2-2.4c0.1-0.2,0.3-0.5,0.8-0.8
			c0.4-0.3,1.1-0.6,1.8-1L123.9,16.3L123.9,16.3z M127,17.4c-0.2,0.1-0.4,0.1-0.5,0c-0.4-0.2-0.3-1.1-0.3-1.1v-6.2
			c0-0.5-0.1-1.5-0.8-2.1c-0.8-0.7-2-0.8-2.8-0.8c-1.1,0-2.1,0.4-2.1,0.4c-0.3,0.2-1,0.5-1.4,1.1c-0.2,0.4-0.3,0.7-0.2,1.2
			c0,0.2,0.2,0.6,0.6,0.7c0.4,0.1,0.7,0,1-0.3c0.4-0.6,0.2-0.8,0.4-1.4c0.4-0.8,1.6-0.6,1.6-0.6s0.8-0.1,1.2,0.4
			c0.2,0.2,0.2,0.8,0.2,0.8v2c-2.4,1.1-3.6,1.9-4.4,2.7c-0.3,0.3-1,1.2-0.9,2.7c0.1,1.5,1.2,1.9,1.6,1.9c0.5,0.1,1.7,0,2.5-0.3
			c0.6-0.2,1-0.6,1.5-1c0.3,0.9,0.6,1.4,1.7,1.4c1.2,0,1.8-1.4,1.9-1.7c-0.1-0.1-0.3-0.2-0.4-0.3C127.3,17.2,127.2,17.3,127,17.4"/>
		<g>
			<path class="st0" d="M108.9,13V7.6h-0.8c-0.1,0.4,0,1.7-1.2,1.9c-0.5,0.1-1.9,0.1-1.9,0.1V3.5c0,0,2.4,0,2.9,0.1
				c0.7,0,1.7,0.1,2.2,0.6c0.5,0.5,0.6,1.8,0.6,1.8h0.9l-0.3-3.8H101v1.1c0.1,0,0.5,0,0.7,0.1c0.5,0.1,0.6,0.3,0.8,0.7
				c0.2,0.4,0.1,1.1,0.1,2.1v9.3c0,0.5,0.1,1.6-0.4,2.1c-0.3,0.4-1,0.4-1.3,0.4v0.9h5.6v-0.9c-0.2,0-1,0-1.3-0.4
				c-0.3-0.3-0.4-1.1-0.4-2.1V11c0,0,1.6,0,1.9,0.2c0.9,0.2,1.1,1.2,1.2,1.9C108.1,13,108.9,13,108.9,13z"/>
		</g>
		<path class="st0" d="M113.7,17.3c-0.1,0.3-0.4,0.4-0.6,0.4s-0.4,0-0.4,0v0.8h4.5v-0.8c0,0-0.3,0-0.5,0c-0.2-0.1-0.4-0.2-0.5-0.4
			c-0.1-0.4-0.2-0.7-0.2-1V1.6l-3.5,0.7v0.8c0,0,0.4,0,0.6,0.1c0.2,0.1,0.4,0.3,0.4,0.6c0.1,0.5,0.2,0.9,0.2,2.1v10.3
			C113.9,16.3,113.9,17.1,113.7,17.3"/>
		<path class="st0" d="M134.4,17.8v0.9h3.9v-0.9c-0.2,0-0.5-0.1-0.6-0.4c-0.2-0.3-0.2-0.9-0.2-2c0-0.1,0-4,0-4.2
			c-0.1-1-0.4-3.8-3.4-3.9c-1.5,0-2.1,0.8-2.6,1.3c0-0.1-0.2-1.3-0.2-1.3S130,8,128.5,8v0.8c0.2,0,0.5,0,0.7,0.3
			c0.3,0.4,0.4,1,0.4,2.1v5.2c0,0.5,0,0.8-0.2,1c-0.1,0.2-0.2,0.4-0.6,0.5c0,0.1,0,0.9,0,0.9h3.9v-0.9c-0.3,0-0.5-0.2-0.6-0.4
			c-0.1-0.2-0.2-0.5-0.2-1c0-0.2,0-5,0-5.2c0.1-0.8,0.5-2.4,1.7-2.4c1.2,0,1.6,1.7,1.7,2.4c0.1,0.3,0,2.3,0.1,4.1
			c0,1.2,0,1.6-0.2,2.1C134.9,17.7,134.7,17.8,134.4,17.8"/>
		<path class="st0" d="M174.5,17.3c-0.2-0.3-0.2-0.9-0.2-2c0-0.1,0-4,0-4.2c-0.1-1-0.4-3.8-3.4-3.9c-1.5,0-2.1,0.8-2.6,1.3
			c0-0.1-0.2-1.3-0.2-1.3S166.7,8,165.3,8v0.8c0.2,0,0.5,0,0.7,0.3c0.3,0.4,0.4,1,0.4,2.1v5.2c0,0.5,0,0.8-0.2,1s-0.2,0.4-0.6,0.5
			c0,0.1,0,0.9,0,0.9h3.9v-0.9c-0.3,0-0.5-0.2-0.6-0.4c-0.1-0.2-0.2-0.5-0.2-1c0-0.2,0-5,0-5.2c0.1-0.8,0.5-2.4,1.7-2.4
			c1.2,0,1.6,1.7,1.7,2.4c0.1,0.3,0,2.3,0.1,4.1c0,1.2,0,1.6-0.2,2.1c-0.2,0.3-0.4,0.4-0.7,0.4v0.9h3.9v-0.9
			C174.9,17.8,174.6,17.7,174.5,17.3"/>
		<g>
			<path class="st0" d="M140.7,16.3c0,1.5-0.8,1.5-0.8,1.5v0.9h3.9v-0.9c0,0-0.8,0-0.8-1.5V7.1l-3.2,1v0.7c0.6,0,0.6,0.1,0.7,0.1
				c0.2,0.2,0.3,0.4,0.3,1.2L140.7,16.3L140.7,16.3z"/>
		</g>
		<path class="st0" d="M150.5,11.6c0,1.6-0.5,3.1-1.8,3.1c-1.1,0-1.7-1.6-1.7-3.1c0-1.7,0.5-3.3,1.7-3.2
			C150,8.3,150.6,9.8,150.5,11.6 M153.4,7.3c-0.8,0-1.5,0.7-2,1c-0.7-0.6-1.6-1-2.7-1c-3.4,0.2-3.7,3.1-3.8,4.1c0,2.3,1.1,3.1,2,3.5
			c-0.6,0.2-1.8,0.5-1.7,2.1c0.1,1.8,2.1,1.9,3.8,2c2,0.1,3.3,0.4,3.1,1.7c-0.2,1.1-1.7,1.8-3.2,1.7c-0.9-0.1-1.8-0.5-2.2-1
			c-0.2-0.3-0.3-0.8-0.1-1.1c0.3-0.3,0.6-0.2,0.6-0.4c0.1-0.3-1.8-0.9-2.3,0.5c-0.4,1.3,0.8,2.2,1.3,2.4c0.5,0.3,2.6,1.2,5.2,0.3
			c1-0.4,2.6-1.3,2.5-3.2c-0.1-4-5.5-2.9-6.7-3.3c-0.1,0-0.3-0.2-0.3-0.5c0-0.1,0-0.3,0.3-0.5c0.1,0,0.9-0.1,1-0.1
			c1.1,0,2.7,0.1,3.8-1.4c0.5-0.7,0.7-1.9,0.6-3.1c-0.1-1.1-0.3-1.8-0.7-2.2c0.1,0,0.4-0.2,0.7-0.2c0.4,0,0.5,0.5,0.7,0.7
			c0.1,0.1,0.3,0.2,0.5,0.1C155.2,9.6,155.1,7.3,153.4,7.3"/>
	</g>
</g>
<g id="Layer_1_00000153688441343812752370000015713612480868524972_">
</g>
</svg>
