<svg width="367" height="17" viewBox="0 0 367 17" fill="none" xmlns="http://www.w3.org/2000/svg">
<g filter="url(#filter0_dd_3316_17239)">
<path d="M366.279 1.00916H0.0283203V16.2013H366.279V1.00916Z" fill="white"/>
<mask id="mask0_3316_17239" style="mask-type:luminance" maskUnits="userSpaceOnUse" x="316" y="4" width="47" height="9">
<path d="M362.719 4.55566H316.697V12.8308H362.719V4.55566Z" fill="white"/>
</mask>
<g mask="url(#mask0_3316_17239)">
<path d="M321.564 11.1973C322.931 11.1973 324.062 10.0615 324.062 8.69504C324.062 7.32612 322.928 6.19275 321.562 6.19275C320.197 6.19275 319.066 7.32612 319.066 8.69504C319.066 10.0615 320.2 11.1973 321.564 11.1973ZM321.564 10.7803C320.408 10.7803 319.485 9.85296 319.485 8.69504C319.485 7.53712 320.406 6.60978 321.562 6.60978C322.717 6.60978 323.643 7.53712 323.646 8.69504C323.648 9.85296 322.72 10.7803 321.564 10.7803ZM321.564 7.44636C321.459 7.44636 321.38 7.52238 321.38 7.63035V8.85694L321.4 9.3746L321.155 9.08018L320.864 8.7858C320.829 8.75391 320.786 8.73182 320.734 8.73182C320.633 8.73182 320.558 8.81035 320.558 8.90846C320.558 8.95998 320.572 9.00415 320.604 9.03605L321.422 9.85296C321.471 9.90201 321.513 9.92164 321.564 9.92164C321.618 9.92164 321.662 9.89955 321.708 9.85296L322.524 9.03605C322.556 9.00415 322.576 8.95998 322.576 8.90846C322.576 8.81035 322.497 8.73182 322.397 8.73182C322.343 8.73182 322.299 8.75144 322.267 8.7858L321.978 9.08018L321.728 9.37702L321.748 8.85694V7.63035C321.748 7.52238 321.672 7.44636 321.564 7.44636Z" fill="#778295"/>
<path d="M333.659 9.36244C333.764 9.36244 333.853 9.27414 333.853 9.1711V6.65165L333.838 6.28363L334.004 6.45781L334.374 6.85526C334.408 6.89451 334.46 6.91413 334.506 6.91413C334.609 6.91413 334.685 6.84052 334.685 6.73995C334.685 6.68843 334.666 6.64919 334.629 6.61236L333.801 5.81261C333.752 5.76356 333.708 5.7464 333.659 5.7464C333.61 5.7464 333.566 5.76356 333.517 5.81261L332.689 6.61236C332.653 6.64919 332.63 6.68843 332.63 6.73995C332.63 6.84052 332.706 6.91413 332.807 6.91413C332.856 6.91413 332.907 6.89451 332.942 6.85526L333.314 6.45781L333.48 6.28363L333.463 6.65165V9.1711C333.463 9.27414 333.554 9.36244 333.659 9.36244ZM332.253 11.2833H335.062C335.574 11.2833 335.831 11.0282 335.831 10.5228V8.07451C335.831 7.56913 335.574 7.31401 335.062 7.31401H334.379V7.70895H335.055C335.297 7.70895 335.437 7.84142 335.437 8.0966V10.5007C335.437 10.7559 335.297 10.8883 335.055 10.8883H332.258C332.014 10.8883 331.879 10.7559 331.879 10.5007V8.0966C331.879 7.84142 332.014 7.70895 332.258 7.70895H332.937V7.31401H332.253C331.742 7.31401 331.484 7.56913 331.484 8.07451V10.5228C331.484 11.0282 331.742 11.2833 332.253 11.2833Z" fill="#778295"/>
<path d="M345.756 10.7634C345.876 10.7634 345.976 10.6677 345.976 10.55V8.91861H347.558C347.675 8.91861 347.776 8.81803 347.776 8.69779C347.776 8.5776 347.675 8.47949 347.558 8.47949H345.976V6.84562C345.976 6.72789 345.876 6.6322 345.756 6.6322C345.636 6.6322 345.538 6.72789 345.538 6.84562V8.47949H343.954C343.836 8.47949 343.735 8.5776 343.735 8.69779C343.735 8.81803 343.836 8.91861 343.954 8.91861H345.538V10.55C345.538 10.6677 345.636 10.7634 345.756 10.7634Z" fill="#778295"/>
<path d="M356.03 10.1324H356.449V10.5077C356.449 11.0131 356.703 11.2683 357.218 11.2683H359.676C360.185 11.2683 360.443 11.0131 360.443 10.5077V8.02508C360.443 7.51975 360.185 7.26462 359.676 7.26462H359.255V6.88925C359.255 6.38391 358.998 6.12878 358.488 6.12878H356.03C355.515 6.12878 355.261 6.38391 355.261 6.88925V9.37192C355.261 9.87729 355.515 10.1324 356.03 10.1324ZM356.035 9.73743C355.79 9.73743 355.655 9.60496 355.655 9.34983V6.91133C355.655 6.6562 355.79 6.52373 356.035 6.52373H358.481C358.723 6.52373 358.861 6.6562 358.861 6.91133V7.26462H357.218C356.703 7.26462 356.449 7.51728 356.449 8.02508V9.73743H356.035ZM357.222 10.8733C356.98 10.8733 356.843 10.7408 356.843 10.4857V8.04717C356.843 7.79204 356.98 7.65957 357.222 7.65957H359.669C359.911 7.65957 360.048 7.79204 360.048 8.04717V10.4857C360.048 10.7408 359.911 10.8733 359.669 10.8733H357.222Z" fill="#778295"/>
</g>
<mask id="mask1_3316_17239" style="mask-type:luminance" maskUnits="userSpaceOnUse" x="39" y="4" width="21" height="9">
<path d="M59.0304 4.55566H39.5596V12.8308H59.0304V4.55566Z" fill="white"/>
</mask>
<g mask="url(#mask1_3316_17239)">
<path d="M45.2438 10.7582L43.3015 8.85939C43.2551 8.8128 43.2305 8.75635 43.2305 8.69502C43.2305 8.63123 43.2578 8.5699 43.3043 8.53065L45.2438 6.62943C45.2853 6.58772 45.339 6.56317 45.4028 6.56317C45.5303 6.56317 45.6255 6.66133 45.6255 6.78887C45.6255 6.84778 45.6009 6.90665 45.5618 6.94835L43.7794 8.69502L45.5618 10.4417C45.6009 10.4834 45.6255 10.5398 45.6255 10.6012C45.6255 10.7288 45.5303 10.8244 45.4028 10.8244C45.339 10.8244 45.2853 10.7999 45.2438 10.7582Z" fill="#778295"/>
<path d="M53.1891 10.8269C53.2528 10.8269 53.3066 10.8024 53.348 10.7607L55.2899 8.85939C55.3368 8.8128 55.3609 8.75635 55.3609 8.69502C55.3609 8.63123 55.3368 8.57236 55.2899 8.53065L53.3508 6.63189C53.3066 6.58772 53.2528 6.56317 53.1891 6.56317C53.0615 6.56317 52.9663 6.66133 52.9663 6.78887C52.9663 6.84778 52.9904 6.90665 53.0296 6.94835L54.8125 8.69502L53.0296 10.4417C52.9904 10.4834 52.9663 10.5398 52.9663 10.6012C52.9663 10.7288 53.0615 10.8269 53.1891 10.8269Z" fill="#BFBFBF"/>
</g>
<path d="M29.9188 10.957H34.1555C34.6698 10.957 34.9244 10.7018 34.9244 10.1965V7.20112C34.9244 6.69574 34.6698 6.44061 34.1555 6.44061H29.9188C29.4073 6.44061 29.1499 6.69328 29.1499 7.20112V10.1965C29.1499 10.7043 29.4073 10.957 29.9188 10.957ZM29.9238 10.562C29.6792 10.562 29.5444 10.432 29.5444 10.1768V7.22074C29.5444 6.96561 29.6792 6.83556 29.9238 6.83556H31.0161V10.562H29.9238ZM34.1505 6.83556C34.3928 6.83556 34.5304 6.96561 34.5304 7.22074V10.1768C34.5304 10.432 34.3928 10.562 34.1505 10.562H31.4006V6.83556H34.1505ZM30.5433 7.7457C30.6194 7.7457 30.6831 7.67948 30.6831 7.60834C30.6831 7.53474 30.6194 7.47094 30.5433 7.47094H30.0195C29.9461 7.47094 29.8796 7.53474 29.8796 7.60834C29.8796 7.67948 29.9461 7.7457 30.0195 7.7457H30.5433ZM30.5433 8.38108C30.6194 8.38108 30.6831 8.31487 30.6831 8.24126C30.6831 8.16766 30.6194 8.10633 30.5433 8.10633H30.0195C29.9461 8.10633 29.8796 8.16766 29.8796 8.24126C29.8796 8.31487 29.9461 8.38108 30.0195 8.38108H30.5433ZM30.5433 9.01405C30.6194 9.01405 30.6831 8.95272 30.6831 8.87911C30.6831 8.80551 30.6194 8.74171 30.5433 8.74171H30.0195C29.9461 8.74171 29.8796 8.80551 29.8796 8.87911C29.8796 8.95272 29.9461 9.01405 30.0195 9.01405H30.5433Z" fill="#778295"/>
<g filter="url(#filter1_d_3316_17239)">
<path fill-rule="evenodd" clip-rule="evenodd" d="M7.99325 10.4672C8.97078 10.4672 9.76336 9.67325 9.76336 8.69394C9.76336 7.71463 8.97078 6.92072 7.99325 6.92072C7.01573 6.92072 6.22314 7.71463 6.22314 8.69394C6.22314 9.67325 7.01573 10.4672 7.99325 10.4672Z" fill="#EE6A5F"/>
</g>
<path d="M9.68951 8.69349C9.68951 9.63201 8.93017 10.3928 7.99319 10.3928C7.05666 10.3928 6.29688 9.63201 6.29688 8.69349C6.29688 7.75497 7.05666 6.99414 7.99319 6.99414C8.93017 6.99414 9.68951 7.75497 9.68951 8.69349Z" stroke="#CE5347" stroke-width="0.323828"/>
<g filter="url(#filter2_d_3316_17239)">
<path fill-rule="evenodd" clip-rule="evenodd" d="M13.8936 10.4667C14.8716 10.4667 15.6638 9.67283 15.6638 8.69351C15.6638 7.7142 14.8716 6.92029 13.8936 6.92029C12.9161 6.92029 12.1235 7.7142 12.1235 8.69351C12.1235 9.67283 12.9161 10.4667 13.8936 10.4667Z" fill="#F5BD4F"/>
</g>
<path d="M15.5894 8.69294C15.5894 9.63146 14.8301 10.3923 13.8931 10.3923C12.9566 10.3923 12.1968 9.63146 12.1968 8.69294C12.1968 7.75442 12.9566 6.99359 13.8931 6.99359C14.8301 6.99359 15.5894 7.75442 15.5894 8.69294Z" stroke="#D6A243" stroke-width="0.323828"/>
<g filter="url(#filter3_d_3316_17239)">
<path fill-rule="evenodd" clip-rule="evenodd" d="M19.794 10.4666C20.7716 10.4666 21.5637 9.67271 21.5637 8.69339C21.5637 7.71408 20.7716 6.92017 19.794 6.92017C18.8161 6.92017 18.0239 7.71408 18.0239 8.69339C18.0239 9.67271 18.8161 10.4666 19.794 10.4666Z" fill="#61C454"/>
</g>
<path d="M21.4898 8.69294C21.4898 9.63146 20.73 10.3923 19.7935 10.3923C18.8565 10.3923 18.0967 9.63146 18.0967 8.69294C18.0967 7.75442 18.8565 6.99359 19.7935 6.99359C20.73 6.99359 21.4898 7.75442 21.4898 8.69294Z" stroke="#58A942" stroke-width="0.323828"/>
<mask id="mask2_3316_17239" style="mask-type:luminance" maskUnits="userSpaceOnUse" x="97" y="4" width="172" height="9">
<path d="M268.994 4.55566H97.3135V12.8308H268.994V4.55566Z" fill="white"/>
</mask>
<g mask="url(#mask2_3316_17239)">
<path d="M102.181 11.2395C102.22 11.2395 102.284 11.2247 102.345 11.1904C103.739 10.4078 104.216 10.0766 104.216 9.18117V7.3045C104.216 7.04691 104.106 6.96596 103.898 6.87761C103.609 6.75742 102.676 6.42133 102.387 6.32076C102.321 6.29867 102.25 6.28394 102.181 6.28394C102.113 6.28394 102.042 6.30356 101.978 6.32076C101.689 6.40418 100.754 6.75988 100.465 6.87761C100.259 6.96349 100.146 7.04691 100.146 7.3045V9.18117C100.146 10.0766 100.626 10.4054 102.017 11.1904C102.081 11.2247 102.142 11.2395 102.181 11.2395ZM102.279 6.70101C102.649 6.84818 103.366 7.10824 103.746 7.23824C103.812 7.26279 103.827 7.29711 103.827 7.38053V9.09041C103.827 9.84846 103.464 10.0472 102.333 10.7366C102.262 10.7807 102.223 10.793 102.184 10.7954V6.67893C102.208 6.67893 102.24 6.68628 102.279 6.70101Z" fill="#778295"/>
<path d="M254.695 4.55566H111.474C110.497 4.55566 109.704 5.34957 109.704 6.32891V11.0576C109.704 12.0369 110.497 12.8308 111.474 12.8308H254.695C255.673 12.8308 256.465 12.0369 256.465 11.0576V6.32891C256.465 5.34957 255.673 4.55566 254.695 4.55566Z" fill="black" fill-opacity="0.05"/>
<mask id="mask3_3316_17239" style="mask-type:luminance" maskUnits="userSpaceOnUse" x="170" y="6" width="27" height="5">
<path d="M196.016 6.3797H170.072V10.9429H196.016V6.3797Z" fill="white"/>
</mask>
<g mask="url(#mask3_3316_17239)">
<path d="M170.404 10.3511H172.05C172.273 10.3511 172.382 10.2403 172.382 9.99789V8.72685C172.382 8.50864 172.292 8.39606 172.107 8.37703V7.94065C172.107 7.28779 171.68 6.97266 171.227 6.97266C170.774 6.97266 170.347 7.28779 170.347 7.94065V8.38571C170.178 8.41167 170.072 8.52251 170.072 8.72685V9.99789C170.072 10.2403 170.181 10.3511 170.404 10.3511ZM170.625 7.90428C170.625 7.46964 170.904 7.23933 171.227 7.23933C171.55 7.23933 171.829 7.46964 171.829 7.90428V8.3753L170.625 8.37703V7.90428Z" fill="#9E9E9E"/>
<path d="M174.445 10.0309V7.93527H174.756V8.26273H174.783C174.827 8.15084 174.897 8.064 174.994 8.00217C175.091 7.93938 175.208 7.90799 175.344 7.90799C175.482 7.90799 175.597 7.93938 175.689 8.00217C175.781 8.064 175.853 8.15084 175.905 8.26273H175.927C175.981 8.15449 176.061 8.06857 176.168 8.00486C176.275 7.94029 176.404 7.90799 176.553 7.90799C176.741 7.90799 176.894 7.96667 177.013 8.08399C177.131 8.20044 177.191 8.38188 177.191 8.62838V10.0309H176.87V8.62838C176.87 8.47378 176.827 8.36326 176.743 8.29686C176.658 8.23047 176.559 8.19725 176.445 8.19725C176.297 8.19725 176.184 8.24183 176.103 8.33095C176.022 8.4192 175.982 8.53105 175.982 8.66658V10.0309H175.655V8.59566C175.655 8.47647 175.616 8.38051 175.539 8.30777C175.462 8.23407 175.362 8.19725 175.241 8.19725C175.157 8.19725 175.079 8.21952 175.006 8.2641C174.935 8.30868 174.877 8.37051 174.832 8.44964C174.788 8.5279 174.767 8.61839 174.767 8.72115V10.0309H174.445ZM178.613 10.0746C178.424 10.0746 178.258 10.0296 178.116 9.93954C177.974 9.8495 177.863 9.72351 177.784 9.56161C177.704 9.3997 177.665 9.21051 177.665 8.99403C177.665 8.77573 177.704 8.58517 177.784 8.42235C177.863 8.25954 177.974 8.13313 178.116 8.04306C178.258 7.95302 178.424 7.90799 178.613 7.90799C178.802 7.90799 178.967 7.95302 179.109 8.04306C179.251 8.13313 179.362 8.25954 179.441 8.42235C179.521 8.58517 179.561 8.77573 179.561 8.99403C179.561 9.21051 179.521 9.3997 179.441 9.56161C179.362 9.72351 179.251 9.8495 179.109 9.93954C178.967 10.0296 178.802 10.0746 178.613 10.0746ZM178.613 9.78534C178.757 9.78534 178.875 9.74852 178.967 9.67487C179.06 9.60117 179.128 9.50429 179.173 9.38424C179.217 9.26418 179.24 9.13412 179.24 8.99403C179.24 8.85394 179.217 8.72344 179.173 8.60246C179.128 8.48149 179.06 8.3837 178.967 8.30914C178.875 8.23453 178.757 8.19725 178.613 8.19725C178.47 8.19725 178.352 8.23453 178.259 8.30914C178.166 8.3837 178.098 8.48149 178.053 8.60246C178.009 8.72344 177.986 8.85394 177.986 8.99403C177.986 9.13412 178.009 9.26418 178.053 9.38424C178.098 9.50429 178.166 9.60117 178.259 9.67487C178.352 9.74852 178.47 9.78534 178.613 9.78534ZM180.036 10.0309V7.93527H180.347V8.25182H180.369C180.407 8.14815 180.476 8.064 180.576 7.99943C180.675 7.93482 180.788 7.90256 180.914 7.90256C180.937 7.90256 180.966 7.90301 181.002 7.90392C181.037 7.90484 181.064 7.90621 181.082 7.90799V8.23544C181.071 8.2327 181.047 8.22864 181.007 8.22317C180.969 8.21682 180.929 8.21363 180.886 8.21363C180.785 8.21363 180.694 8.23499 180.614 8.27774C180.535 8.31959 180.472 8.37781 180.426 8.45238C180.381 8.52607 180.358 8.61017 180.358 8.70477V10.0309H180.036ZM182.261 10.0746C182.06 10.0746 181.886 10.03 181.74 9.9409C181.595 9.85087 181.482 9.72534 181.403 9.56435C181.325 9.40244 181.286 9.21416 181.286 8.99951C181.286 8.78486 181.325 8.59566 181.403 8.43193C181.482 8.26729 181.592 8.13902 181.733 8.04716C181.875 7.95439 182.04 7.90799 182.229 7.90799C182.337 7.90799 182.445 7.92619 182.552 7.96256C182.658 7.99898 182.754 8.05807 182.841 8.13993C182.929 8.22089 182.998 8.32821 183.05 8.46192C183.102 8.59566 183.127 8.76026 183.127 8.95584V9.09228H181.515V8.81392H182.801C182.801 8.69569 182.777 8.59019 182.73 8.49742C182.684 8.40465 182.617 8.33141 182.531 8.27774C182.445 8.22408 182.345 8.19725 182.229 8.19725C182.101 8.19725 181.99 8.2291 181.896 8.29276C181.804 8.3555 181.733 8.43737 181.682 8.53835C181.632 8.63929 181.608 8.74753 181.608 8.86307V9.04861C181.608 9.20686 181.635 9.34102 181.689 9.45109C181.745 9.56024 181.821 9.64347 181.919 9.70079C182.018 9.75714 182.132 9.78534 182.261 9.78534C182.346 9.78534 182.422 9.77352 182.49 9.74989C182.559 9.72534 182.619 9.68897 182.669 9.64073C182.718 9.59163 182.757 9.53067 182.784 9.45793L183.095 9.54523C183.062 9.65073 183.007 9.7435 182.93 9.82358C182.853 9.90271 182.757 9.96454 182.644 10.0091C182.531 10.0528 182.403 10.0746 182.261 10.0746ZM183.923 8.7703V10.0309H183.601V7.93527H183.912V8.26273H183.939C183.988 8.15632 184.062 8.0708 184.162 8.00623C184.262 7.94075 184.391 7.90799 184.549 7.90799C184.691 7.90799 184.815 7.9371 184.921 7.99533C185.027 8.05264 185.11 8.13993 185.168 8.2573C185.228 8.37371 185.257 8.52106 185.257 8.69934V10.0309H184.936V8.72115C184.936 8.55651 184.893 8.42829 184.808 8.33643C184.723 8.24366 184.605 8.19725 184.456 8.19725C184.354 8.19725 184.262 8.21952 184.181 8.2641C184.101 8.30868 184.038 8.37371 183.992 8.45922C183.945 8.54469 183.923 8.64841 183.923 8.7703ZM186.739 7.93527V8.20815H185.655V7.93527H186.739ZM185.971 7.43323H186.292V9.43064C186.292 9.52159 186.305 9.58981 186.332 9.6353C186.359 9.67984 186.393 9.70987 186.435 9.72534C186.478 9.73989 186.523 9.74715 186.57 9.74715C186.606 9.74715 186.634 9.74532 186.657 9.74172C186.68 9.73715 186.698 9.73351 186.712 9.73077L186.777 10.02C186.755 10.0282 186.725 10.0364 186.686 10.0446C186.647 10.0537 186.597 10.0582 186.537 10.0582C186.447 10.0582 186.358 10.0387 186.27 9.99959C186.184 9.96043 186.112 9.90088 186.055 9.82085C185.999 9.74081 185.971 9.63982 185.971 9.51794V7.43323ZM187.441 10.0528C187.374 10.0528 187.317 10.0287 187.268 9.98047C187.22 9.93228 187.196 9.87451 187.196 9.8072C187.196 9.73989 187.22 9.68212 187.268 9.63394C187.317 9.5857 187.374 9.56161 187.441 9.56161C187.508 9.56161 187.566 9.5857 187.614 9.63394C187.662 9.68212 187.687 9.73989 187.687 9.8072C187.687 9.85174 187.675 9.89267 187.652 9.93C187.63 9.96728 187.601 9.99731 187.564 10.02C187.528 10.0418 187.487 10.0528 187.441 10.0528ZM189.098 10.0746C188.902 10.0746 188.733 10.0282 188.591 9.93543C188.449 9.84266 188.341 9.71489 188.264 9.55207C188.188 9.38925 188.15 9.20326 188.15 8.99403C188.15 8.7812 188.189 8.59338 188.267 8.43057C188.346 8.26684 188.456 8.13902 188.597 8.04716C188.738 7.95439 188.904 7.90799 189.092 7.90799C189.239 7.90799 189.372 7.93527 189.49 7.98985C189.608 8.04443 189.705 8.12086 189.78 8.21906C189.855 8.31731 189.902 8.43194 189.92 8.5629H189.599C189.575 8.46739 189.52 8.38279 189.436 8.30914C189.352 8.23453 189.239 8.19725 189.098 8.19725C188.972 8.19725 188.863 8.23001 188.768 8.29549C188.675 8.36006 188.602 8.45147 188.549 8.5697C188.497 8.68707 188.471 8.82487 188.471 8.98313C188.471 9.14503 188.497 9.28599 188.547 9.40605C188.599 9.52615 188.672 9.61938 188.766 9.68577C188.86 9.75217 188.971 9.78534 189.098 9.78534C189.181 9.78534 189.257 9.77079 189.325 9.74172C189.393 9.7126 189.451 9.67076 189.498 9.61618C189.545 9.56161 189.579 9.49613 189.599 9.41969H189.92C189.902 9.5434 189.857 9.65483 189.786 9.75399C189.715 9.85219 189.621 9.93045 189.504 9.98863C189.387 10.0459 189.252 10.0746 189.098 10.0746ZM191.225 10.0746C191.036 10.0746 190.87 10.0296 190.728 9.93954C190.586 9.8495 190.475 9.72351 190.395 9.56161C190.316 9.3997 190.277 9.21051 190.277 8.99403C190.277 8.77573 190.316 8.58517 190.395 8.42235C190.475 8.25954 190.586 8.13313 190.728 8.04306C190.87 7.95302 191.036 7.90799 191.225 7.90799C191.413 7.90799 191.579 7.95302 191.721 8.04306C191.863 8.13313 191.974 8.25954 192.053 8.42235C192.133 8.58517 192.172 8.77573 192.172 8.99403C192.172 9.21051 192.133 9.3997 192.053 9.56161C191.974 9.72351 191.863 9.8495 191.721 9.93954C191.579 10.0296 191.413 10.0746 191.225 10.0746ZM191.225 9.78534C191.368 9.78534 191.486 9.74852 191.579 9.67487C191.671 9.60117 191.74 9.50429 191.784 9.38424C191.829 9.26418 191.851 9.13412 191.851 8.99403C191.851 8.85394 191.829 8.72344 191.784 8.60246C191.74 8.48149 191.671 8.3837 191.579 8.30914C191.486 8.23453 191.368 8.19725 191.225 8.19725C191.081 8.19725 190.963 8.23453 190.871 8.30914C190.778 8.3837 190.709 8.48149 190.665 8.60246C190.62 8.72344 190.598 8.85394 190.598 8.99403C190.598 9.13412 190.62 9.26418 190.665 9.38424C190.709 9.50429 190.778 9.60117 190.871 9.67487C190.963 9.74852 191.081 9.78534 191.225 9.78534ZM192.648 10.0309V7.93527H192.959V8.26273H192.985C193.029 8.15084 193.1 8.064 193.197 8.00217C193.294 7.93938 193.41 7.90799 193.547 7.90799C193.685 7.90799 193.799 7.93938 193.891 8.00217C193.984 8.064 194.056 8.15084 194.108 8.26273H194.13C194.183 8.15449 194.264 8.06857 194.371 8.00486C194.478 7.94029 194.606 7.90799 194.756 7.90799C194.943 7.90799 195.096 7.96667 195.215 8.08399C195.334 8.20044 195.394 8.38188 195.394 8.62838V10.0309H195.072V8.62838C195.072 8.47378 195.03 8.36326 194.946 8.29686C194.861 8.23047 194.761 8.19725 194.647 8.19725C194.5 8.19725 194.386 8.24183 194.306 8.33095C194.224 8.4192 194.184 8.53105 194.184 8.66658V10.0309H193.857V8.59566C193.857 8.47647 193.819 8.38051 193.742 8.30777C193.664 8.23407 193.565 8.19725 193.443 8.19725C193.36 8.19725 193.282 8.21952 193.209 8.2641C193.137 8.30868 193.079 8.37051 193.035 8.44964C192.991 8.5279 192.97 8.61839 192.97 8.72115V10.0309H192.648Z" fill="#4C4C4C"/>
</g>
<path d="M252.923 8.5484C252.966 8.5484 253 8.53457 253.024 8.50861L253.736 7.79168C253.767 7.76225 253.779 7.72761 253.779 7.68778C253.779 7.64967 253.763 7.61157 253.736 7.58387L253.024 6.86005C253 6.83231 252.965 6.81848 252.923 6.81848C252.846 6.81848 252.787 6.88081 252.787 6.96049C252.787 6.99686 252.8 7.03145 252.825 7.05919L253.286 7.51287C253.188 7.49557 253.087 7.48517 252.987 7.48517C252.14 7.48517 251.459 8.16573 251.459 9.01426C251.459 9.86448 252.14 10.5468 252.987 10.5468C253.834 10.5468 254.514 9.86448 254.514 9.01426C254.514 8.93112 254.455 8.87052 254.37 8.87052C254.289 8.87052 254.235 8.93112 254.235 9.01426C254.235 9.71038 253.681 10.268 252.987 10.268C252.294 10.268 251.737 9.71038 251.737 9.01426C251.737 8.31983 252.294 7.76398 252.987 7.76398C253.118 7.76398 253.24 7.77434 253.343 7.79688L252.826 8.31116C252.8 8.3389 252.787 8.37354 252.787 8.40991C252.787 8.48954 252.846 8.5484 252.923 8.5484Z" fill="#797979"/>
</g>
</g>
<defs>
<filter id="filter0_dd_3316_17239" x="0.0283203" y="0.685327" width="366.251" height="15.8399" filterUnits="userSpaceOnUse" color-interpolation-filters="sRGB">
<feFlood flood-opacity="0" result="BackgroundImageFix"/>
<feColorMatrix in="SourceAlpha" type="matrix" values="0 0 0 0 0 0 0 0 0 0 0 0 0 0 0 0 0 0 127 0" result="hardAlpha"/>
<feOffset dy="0.323828"/>
<feColorMatrix type="matrix" values="0 0 0 0 0 0 0 0 0 0 0 0 0 0 0 0 0 0 0.15 0"/>
<feBlend mode="normal" in2="BackgroundImageFix" result="effect1_dropShadow_3316_17239"/>
<feColorMatrix in="SourceAlpha" type="matrix" values="0 0 0 0 0 0 0 0 0 0 0 0 0 0 0 0 0 0 127 0" result="hardAlpha"/>
<feOffset dy="-0.323828"/>
<feComposite in2="hardAlpha" operator="out"/>
<feColorMatrix type="matrix" values="0 0 0 0 0 0 0 0 0 0 0 0 0 0 0 0 0 0 0.05 0"/>
<feBlend mode="normal" in2="effect1_dropShadow_3316_17239" result="effect2_dropShadow_3316_17239"/>
<feBlend mode="normal" in="SourceGraphic" in2="effect2_dropShadow_3316_17239" result="shape"/>
</filter>
<filter id="filter1_d_3316_17239" x="2.3372" y="3.03478" width="11.3119" height="11.3183" filterUnits="userSpaceOnUse" color-interpolation-filters="sRGB">
<feFlood flood-opacity="0" result="BackgroundImageFix"/>
<feColorMatrix in="SourceAlpha" type="matrix" values="0 0 0 0 0 0 0 0 0 0 0 0 0 0 0 0 0 0 127 0" result="hardAlpha"/>
<feOffset/>
<feGaussianBlur stdDeviation="1.94297"/>
<feComposite in2="hardAlpha" operator="out"/>
<feColorMatrix type="matrix" values="0 0 0 0 0.92549 0 0 0 0 0.427451 0 0 0 0 0.384314 0 0 0 1 0"/>
<feBlend mode="normal" in2="BackgroundImageFix" result="effect1_dropShadow_3316_17239"/>
<feBlend mode="normal" in="SourceGraphic" in2="effect1_dropShadow_3316_17239" result="shape"/>
</filter>
<filter id="filter2_d_3316_17239" x="8.2376" y="3.03435" width="11.3119" height="11.3183" filterUnits="userSpaceOnUse" color-interpolation-filters="sRGB">
<feFlood flood-opacity="0" result="BackgroundImageFix"/>
<feColorMatrix in="SourceAlpha" type="matrix" values="0 0 0 0 0 0 0 0 0 0 0 0 0 0 0 0 0 0 127 0" result="hardAlpha"/>
<feOffset/>
<feGaussianBlur stdDeviation="1.94297"/>
<feComposite in2="hardAlpha" operator="out"/>
<feColorMatrix type="matrix" values="0 0 0 0 0.960784 0 0 0 0 0.768627 0 0 0 0 0.317647 0 0 0 1 0"/>
<feBlend mode="normal" in2="BackgroundImageFix" result="effect1_dropShadow_3316_17239"/>
<feBlend mode="normal" in="SourceGraphic" in2="effect1_dropShadow_3316_17239" result="shape"/>
</filter>
<filter id="filter3_d_3316_17239" x="14.138" y="3.03423" width="11.3114" height="11.3183" filterUnits="userSpaceOnUse" color-interpolation-filters="sRGB">
<feFlood flood-opacity="0" result="BackgroundImageFix"/>
<feColorMatrix in="SourceAlpha" type="matrix" values="0 0 0 0 0 0 0 0 0 0 0 0 0 0 0 0 0 0 127 0" result="hardAlpha"/>
<feOffset/>
<feGaussianBlur stdDeviation="1.94297"/>
<feComposite in2="hardAlpha" operator="out"/>
<feColorMatrix type="matrix" values="0 0 0 0 0.407843 0 0 0 0 0.8 0 0 0 0 0.345098 0 0 0 1 0"/>
<feBlend mode="normal" in2="BackgroundImageFix" result="effect1_dropShadow_3316_17239"/>
<feBlend mode="normal" in="SourceGraphic" in2="effect1_dropShadow_3316_17239" result="shape"/>
</filter>
</defs>
</svg>
