<?xml version="1.0" encoding="UTF-8"?> <svg xmlns="http://www.w3.org/2000/svg" width="136" height="40" viewBox="0 0 136 40" fill="none"> <path fill-rule="evenodd" clip-rule="evenodd" d="M10.5674 33.8327C10.5674 32.778 10.7303 31.8556 11.0554 31.0646C11.3805 30.2736 11.8073 29.6156 12.3366 29.0883C12.866 28.561 13.474 28.1611 14.1623 27.8903C14.8506 27.6195 15.5572 27.4841 16.2828 27.4841C17.9758 27.4841 19.3142 27.9996 20.2974 29.0313C21.2798 30.063 21.771 31.5808 21.771 33.5841C21.771 33.7796 21.7638 33.9942 21.7487 34.2278C21.7336 34.4614 21.7185 34.6688 21.7034 34.8493H14.0375C14.113 35.5422 14.4381 36.0917 15.0127 36.4986C15.5874 36.9056 16.3583 37.1091 17.3264 37.1091C17.9456 37.1091 18.5544 37.0521 19.1521 36.9389C19.749 36.8264 20.2362 36.6871 20.6145 36.5216L21.0683 39.2549C20.8871 39.3451 20.6447 39.4354 20.3427 39.5257C20.0399 39.6167 19.7037 39.6951 19.3333 39.7632C18.9629 39.8305 18.5655 39.8875 18.1427 39.9326C17.719 39.9778 17.2954 39.9999 16.8726 39.9999C15.7988 39.9999 14.8657 39.8424 14.0717 39.5257C13.2777 39.2097 12.6204 38.7766 12.099 38.2271C11.5768 37.6776 11.1913 37.026 10.9417 36.273C10.6922 35.52 10.5674 34.706 10.5674 33.8327ZM18.5052 32.5452C18.4901 32.2586 18.4409 31.9798 18.3582 31.7083C18.2748 31.4375 18.146 31.1968 17.9727 30.9854C17.7987 30.7747 17.5793 30.6013 17.3154 30.4659C17.05 30.3305 16.7217 30.2632 16.3283 30.2632C15.9499 30.2632 15.6257 30.3266 15.353 30.4549C15.0812 30.5831 14.8539 30.7518 14.6727 30.9632C14.4915 31.1738 14.3516 31.4193 14.253 31.698C14.1545 31.9759 14.083 32.2586 14.0376 32.5452H18.5052Z" fill="#076DC1"></path> <path fill-rule="evenodd" clip-rule="evenodd" d="M31.0023 30.7827C30.6995 30.7067 30.3442 30.6283 29.9365 30.5451C29.5279 30.4628 29.0892 30.4208 28.6211 30.4208C28.4089 30.4208 28.1561 30.4398 27.8612 30.4778C27.5664 30.5151 27.343 30.5562 27.192 30.6014V39.684H23.8125V28.4327C24.4173 28.222 25.1319 28.0225 25.9561 27.8341C26.7803 27.6456 27.6983 27.5514 28.7117 27.5514C28.8929 27.5514 29.1123 27.5633 29.369 27.5854C29.6265 27.6084 29.8832 27.6385 30.1407 27.6757C30.3975 27.7137 30.6542 27.7588 30.9117 27.8119C31.1684 27.8649 31.3878 27.9283 31.569 28.0035L31.0023 30.7827Z" fill="#076DC1"></path> <path fill-rule="evenodd" clip-rule="evenodd" d="M37.3466 39.684C36.5724 38.178 35.7872 36.4163 34.9908 34.3972C34.1936 32.379 33.4385 30.1802 32.7256 27.8H36.3094C36.4604 28.3876 36.6392 29.0242 36.8443 29.7091C37.0493 30.3947 37.2615 31.0876 37.4825 31.7875C37.7027 32.4882 37.9228 33.17 38.143 33.8327C38.3631 34.4954 38.5801 35.098 38.7923 35.6395C38.9894 35.098 39.2017 34.4954 39.4298 33.8327C39.6571 33.17 39.8812 32.4882 40.1014 31.7875C40.3215 31.0876 40.5338 30.3947 40.7388 29.7091C40.9431 29.0242 41.1219 28.3876 41.2737 27.8H44.7685C44.0555 30.1802 43.3013 32.379 42.5049 34.3972C41.7093 36.4163 40.924 38.178 40.1507 39.684H37.3466Z" fill="#076DC1"></path> <path fill-rule="evenodd" clip-rule="evenodd" d="M46.5596 27.8H49.9391V39.684H46.5596V27.8Z" fill="#076DC1"></path> <path fill-rule="evenodd" clip-rule="evenodd" d="M51.9795 33.7424C51.9795 32.8833 52.1194 32.0741 52.3991 31.3132C52.6789 30.5531 53.0827 29.8904 53.6128 29.325C54.1422 28.7605 54.7844 28.3123 55.5402 27.9814C56.2961 27.6496 57.1576 27.4841 58.1257 27.4841C58.7608 27.4841 59.3426 27.5403 59.8719 27.6536C60.4012 27.7668 60.9155 27.9283 61.4146 28.1389L60.7112 30.8279C60.3941 30.7067 60.046 30.6014 59.6676 30.5111C59.2901 30.4209 58.8665 30.3757 58.3983 30.3757C57.4001 30.3757 56.6553 30.6845 56.1641 31.3021C55.6722 31.9197 55.4266 32.7329 55.4266 33.7424C55.4266 34.8121 55.6571 35.6396 56.1188 36.2271C56.5798 36.8146 57.385 37.1091 58.5342 37.1091C58.942 37.1091 59.3807 37.0711 59.8497 36.9959C60.3178 36.9199 60.7486 36.7995 61.142 36.634L61.6181 39.3911C61.2255 39.5565 60.7343 39.6991 60.1445 39.8202C59.5548 39.9398 58.9046 39.9999 58.1941 39.9999C57.1052 39.9999 56.1673 39.8384 55.3813 39.5146C54.5952 39.1907 53.949 38.7505 53.4427 38.1931C52.9356 37.6364 52.5653 36.9769 52.3308 36.216C52.0971 35.4559 51.9795 34.6308 51.9795 33.7424Z" fill="#076DC1"></path> <path fill-rule="evenodd" clip-rule="evenodd" d="M62.1855 33.8327C62.1855 32.778 62.3477 31.8556 62.6728 31.0646C62.9978 30.2736 63.4246 29.6156 63.954 29.0883C64.4833 28.561 65.0921 28.1611 65.7805 27.8903C66.468 27.6195 67.1745 27.4841 67.9002 27.4841C69.5931 27.4841 70.9316 27.9996 71.9148 29.0313C72.8971 30.063 73.3891 31.5808 73.3891 33.5841C73.3891 33.7796 73.3812 33.9942 73.3661 34.2278C73.351 34.4614 73.3359 34.6688 73.3208 34.8493H65.6549C65.7304 35.5422 66.0555 36.0917 66.6309 36.4986C67.2047 36.9056 67.9757 37.1091 68.9438 37.1091C69.5637 37.1091 70.1717 37.0521 70.7694 36.9389C71.3663 36.8264 71.8544 36.6871 72.2319 36.5216L72.6857 39.2549C72.5045 39.3451 72.2621 39.4354 71.9601 39.5257C71.6572 39.6167 71.321 39.6951 70.9507 39.7632C70.5803 39.8305 70.1829 39.8875 69.76 39.9326C69.3364 39.9778 68.9128 39.9999 68.4899 39.9999C67.4162 39.9999 66.4831 39.8424 65.689 39.5257C64.895 39.2097 64.2377 38.7766 63.7163 38.2271C63.1942 37.6776 62.8087 37.026 62.5599 36.273C62.3103 35.52 62.1855 34.706 62.1855 33.8327ZM70.1227 32.5452C70.1076 32.2586 70.0591 31.9798 69.9756 31.7083C69.8922 31.4375 69.7634 31.1968 69.5902 30.9854C69.4161 30.7747 69.1967 30.6013 68.9329 30.4659C68.6682 30.3305 68.3391 30.2632 67.9457 30.2632C67.5674 30.2632 67.2431 30.3266 66.9705 30.4549C66.6987 30.5831 66.4721 30.7518 66.2901 30.9632C66.1089 31.1738 65.969 31.4193 65.8705 31.698C65.7727 31.9759 65.7004 32.2586 65.6551 32.5452H70.1227Z" fill="#076DC1"></path> <path fill-rule="evenodd" clip-rule="evenodd" d="M83.2659 32.8612C82.9631 34.0061 82.642 35.1431 82.3026 36.273C81.9624 37.4021 81.6024 38.5399 81.2249 39.684H78.5941C78.3214 39.0514 78.0258 38.2984 77.7071 37.425C77.3891 36.5517 77.0585 35.5984 76.7175 34.5667C76.3765 33.535 76.0276 32.4431 75.6716 31.2903C75.3147 30.1382 74.9705 28.9751 74.6367 27.8H78.1974C78.3191 28.3424 78.4518 28.9339 78.5956 29.5737C78.7411 30.2142 78.8929 30.873 79.0519 31.5508C79.2124 32.2285 79.3801 32.9103 79.555 33.5952C79.7298 34.2808 79.9079 34.9396 80.0907 35.5722C80.287 34.9095 80.4793 34.2317 80.6693 33.5389C80.8585 32.8461 81.0397 32.1644 81.2137 31.4937C81.3878 30.8239 81.5539 30.1762 81.7121 29.5507C81.8718 28.9268 82.0109 28.3424 82.1317 27.8H84.5813C84.7021 28.3424 84.838 28.9268 84.9899 29.5507C85.1409 30.1762 85.299 30.8239 85.4659 31.4937C85.6321 32.1644 85.8061 32.8461 85.9873 33.5389C86.1693 34.2317 86.3577 34.9095 86.5548 35.5722C86.7376 34.9396 86.9188 34.2808 87.1016 33.5952C87.2845 32.9103 87.4561 32.2285 87.6159 31.5508C87.7748 30.873 87.9267 30.2142 88.0721 29.5737C88.216 28.9339 88.3487 28.3424 88.4703 27.8H91.9865C91.6519 28.9751 91.3078 30.1382 90.9509 31.2903C90.5948 32.4431 90.2459 33.535 89.9041 34.5667C89.5632 35.5984 89.2301 36.5517 88.9043 37.425C88.5776 38.2984 88.2788 39.0514 88.0061 39.684H85.3753C84.997 38.5399 84.6266 37.4021 84.2634 36.273C83.901 35.1431 83.5679 34.0061 83.2659 32.8612Z" fill="#076DC1"></path> <path fill-rule="evenodd" clip-rule="evenodd" d="M110.855 27.4841C111.852 27.4841 112.684 27.5966 113.349 27.823C114.015 28.0487 114.547 28.3725 114.948 28.7945C115.349 29.2158 115.632 29.7289 115.798 30.3306C115.965 30.9332 116.048 31.603 116.048 32.341V39.3451C115.564 39.4512 114.892 39.5747 114.029 39.7181C113.168 39.8614 112.124 39.9326 110.9 39.9326C110.129 39.9326 109.43 39.8653 108.803 39.7291C108.174 39.5937 107.634 39.372 107.18 39.0632C106.727 38.7545 106.378 38.3514 106.138 37.8542C105.895 37.3569 105.774 36.7473 105.774 36.0236C105.774 35.3315 105.914 34.744 106.194 34.2618C106.474 33.7796 106.847 33.3956 107.316 33.1098C107.785 32.8232 108.323 32.6165 108.927 32.4882C109.531 32.3608 110.159 32.2958 110.81 32.2958C111.247 32.2958 111.637 32.3156 111.977 32.352C112.318 32.3908 112.593 32.4399 112.804 32.4993V32.1834C112.804 31.6109 112.631 31.1517 112.283 30.8049C111.936 30.4589 111.331 30.2855 110.469 30.2855C109.894 30.2855 109.327 30.3267 108.768 30.4098C108.209 30.4921 107.725 30.6093 107.316 30.7598L106.886 28.0487C107.082 27.9885 107.327 27.9244 107.623 27.8563C107.917 27.789 108.238 27.7288 108.587 27.6757C108.934 27.6227 109.301 27.5776 109.686 27.5403C110.073 27.5031 110.461 27.4841 110.855 27.4841ZM111.127 37.334C111.459 37.334 111.777 37.3268 112.079 37.3118C112.382 37.2968 112.624 37.2746 112.805 37.2437V34.691C112.669 34.6609 112.465 34.6308 112.193 34.6007C111.921 34.5706 111.671 34.5556 111.445 34.5556C111.127 34.5556 110.828 34.5746 110.549 34.6118C110.268 34.6498 110.023 34.7219 109.811 34.8272C109.6 34.9325 109.434 35.075 109.312 35.2563C109.191 35.4368 109.131 35.6625 109.131 35.9341C109.131 36.4614 109.308 36.8264 109.664 37.0291C110.02 37.2326 110.507 37.334 111.127 37.334Z" fill="#076DC1"></path> <path fill-rule="evenodd" clip-rule="evenodd" d="M123.305 39.9105C122.322 39.8946 121.525 39.7893 120.913 39.5937C120.301 39.3982 119.816 39.1234 119.462 38.7687C119.106 38.4156 118.864 37.9864 118.735 37.4813C118.607 36.9769 118.543 36.4084 118.543 35.7757V22.6938L121.922 22.1522V35.098C121.922 35.3996 121.945 35.6704 121.99 35.9111C122.035 36.1526 122.123 36.3553 122.251 36.5216C122.379 36.6871 122.565 36.8225 122.807 36.9278C123.048 37.0331 123.374 37.1012 123.782 37.1313L123.305 39.9105Z" fill="#076DC1"></path> <path fill-rule="evenodd" clip-rule="evenodd" d="M124.575 33.8327C124.575 32.778 124.737 31.8556 125.062 31.0646C125.387 30.2736 125.815 29.6156 126.344 29.0883C126.874 28.561 127.481 28.1611 128.169 27.8903C128.858 27.6195 129.564 27.4841 130.29 27.4841C131.984 27.4841 133.322 27.9996 134.304 29.0313C135.288 30.063 135.779 31.5808 135.779 33.5841C135.779 33.7796 135.771 33.9942 135.756 34.2278C135.741 34.4614 135.726 34.6688 135.711 34.8493H128.045C128.12 35.5422 128.445 36.0917 129.02 36.4986C129.594 36.9056 130.365 37.1091 131.333 37.1091C131.953 37.1091 132.562 37.0521 133.16 36.9389C133.756 36.8264 134.244 36.6871 134.622 36.5216L135.075 39.2549C134.894 39.3451 134.653 39.4354 134.35 39.5257C134.047 39.6167 133.711 39.6951 133.34 39.7632C132.97 39.8305 132.573 39.8875 132.15 39.9326C131.727 39.9778 131.303 39.9999 130.88 39.9999C129.807 39.9999 128.873 39.8424 128.079 39.5257C127.285 39.2097 126.627 38.7766 126.106 38.2271C125.585 37.6776 125.199 37.026 124.95 36.273C124.699 35.52 124.575 34.706 124.575 33.8327ZM132.513 32.5452C132.498 32.2586 132.448 31.9798 132.366 31.7083C132.282 31.4375 132.153 31.1968 131.98 30.9854C131.805 30.7747 131.586 30.6013 131.322 30.4659C131.057 30.3305 130.728 30.2632 130.336 30.2632C129.957 30.2632 129.632 30.3266 129.36 30.4549C129.088 30.5831 128.861 30.7518 128.68 30.9632C128.498 31.1738 128.358 31.4193 128.26 31.698C128.162 31.9759 128.09 32.2586 128.045 32.5452H132.513Z" fill="#076DC1"></path> <path fill-rule="evenodd" clip-rule="evenodd" d="M103.018 29.0432C102.633 28.561 102.119 28.188 101.476 27.9244C100.833 27.6615 100.028 27.5293 99.061 27.5293C98.728 27.5293 98.3839 27.5633 98.0294 27.6306C97.6733 27.6987 97.3832 27.77 97.1559 27.8452V22.1522L96.4604 22.2631C95.5877 22.6004 94.6936 22.8941 93.7764 23.134V39.684H97.1559V30.6465C97.3673 30.5871 97.6057 30.5309 97.8704 30.4779C98.1351 30.4248 98.418 30.3979 98.7208 30.3979C99.4767 30.3979 99.9949 30.6244 100.275 31.0757C100.554 31.5278 100.694 32.2958 100.694 33.3806V39.684H104.073V32.9744C104.073 32.1604 103.994 31.4233 103.835 30.7598C103.676 30.0978 103.405 29.5254 103.018 29.0432Z" fill="#076DC1"></path> <path fill-rule="evenodd" clip-rule="evenodd" d="M90.5893 23.5759C90.5893 23.5759 80.9245 24.4714 43.2046 15.1861C12.8446 7.71324 4.00719 22.1523 4.00719 22.1523H4.00799C3.63522 22.5141 3.40234 23.0169 3.40234 23.5759C3.40234 24.6741 4.2957 25.5641 5.3981 25.5641C6.13727 25.5641 6.7747 25.1595 7.11965 24.5649L7.12521 24.5696C7.12521 24.5696 11.7804 16.0682 29.1699 16.5076C47.3169 16.9653 73.5797 25.5641 84.3524 24.5696C92.2894 23.8364 90.5893 23.5759 90.5893 23.5759Z" fill="#FFC618"></path> <path fill-rule="evenodd" clip-rule="evenodd" d="M4.12742 37.2667C4.74737 37.2667 5.18531 37.2065 5.44283 37.0862C5.69955 36.9658 5.82831 36.7322 5.82831 36.3854C5.82831 36.1146 5.66219 35.8771 5.32917 35.6744C4.99694 35.4709 4.49065 35.2413 3.8103 34.9847C3.28016 34.7892 2.80089 34.5857 2.37011 34.3743C1.93853 34.1637 1.57212 33.9119 1.2701 33.6181C0.967278 33.3244 0.73281 32.9744 0.566696 32.5674C0.400582 32.1604 0.317127 31.6711 0.317127 31.0986C0.317127 29.9846 0.73281 29.1033 1.56497 28.4557C2.39634 27.808 3.53768 27.4841 4.98899 27.4841C5.71544 27.4841 6.4101 27.5483 7.07615 27.6757C7.74061 27.804 8.26995 27.9434 8.66338 28.0938L8.07363 30.7146C7.6802 30.5792 7.25339 30.4589 6.79241 30.3536C6.33062 30.2483 5.8132 30.1952 5.23856 30.1952C4.18068 30.1952 3.65134 30.4882 3.65134 31.0757C3.65134 31.2119 3.67359 31.3322 3.71969 31.4375C3.76499 31.5428 3.8556 31.645 3.99151 31.7432C4.12742 31.8406 4.31261 31.9467 4.54708 32.0607C4.78155 32.1739 5.08039 32.2998 5.44283 32.436C6.18358 32.7099 6.79558 32.9791 7.27962 33.2452C7.76366 33.5104 8.14516 33.7979 8.42494 34.1051C8.70471 34.4139 8.90102 34.7559 9.01468 35.1312C9.12834 35.5073 9.18477 35.9428 9.18477 36.4385C9.18477 37.6111 8.74286 38.4979 7.85824 39.0989C6.97362 39.6998 5.7226 39.9999 4.10437 39.9999C3.04649 39.9999 2.16584 39.9105 1.46244 39.7291C0.759834 39.5486 0.271823 39.3982 0 39.2778L0.566696 36.5438C1.14134 36.7694 1.73109 36.9468 2.33593 37.0743C2.93998 37.2025 3.53768 37.2667 4.12742 37.2667Z" fill="#076DC1"></path> <path fill-rule="evenodd" clip-rule="evenodd" d="M33.984 3.67825C33.0096 3.49218 31.5916 3.67429 30.44 4.57852C29.8025 5.07813 29.2033 5.7852 28.8933 6.80186C28.8313 7.00456 28.6533 7.18825 28.4323 7.15975C27.9236 7.09482 27.744 5.34259 27.5644 4.74954C27.5604 4.72816 27.5572 4.71233 27.5572 4.71233C27.5572 4.71233 27.5572 4.72183 27.5572 4.72579C26.2879 0.566522 22.5873 -0.31949 20.4461 0.0906565C18.5727 0.448545 16.3838 1.81992 16.6477 4.41145C16.9792 7.67837 20.7974 8.87872 22.9863 7.38857C23.9273 6.74802 24.076 5.97206 23.8399 5.32042C23.3789 4.04722 22.3791 3.91658 21.1694 4.24359C19.722 4.63394 19.1839 2.55708 21.1264 2.28074C25.0798 1.71778 26.8475 4.96016 27.62 8.43769C27.6232 8.45353 27.6264 8.4662 27.6295 8.48283C28.1112 10.5652 27.9944 11.4409 28.3425 11.4409C28.7741 11.4409 28.3926 10.7941 29.2565 8.12494C29.8574 6.26978 31.2507 4.95224 33.4896 5.27133C34.9012 5.47165 34.5102 6.98239 33.4586 6.69893C32.5788 6.4606 31.8508 6.5564 31.5161 7.48121C31.3445 7.95629 31.4526 8.52004 32.1361 8.98561C33.7281 10.0696 36.5051 9.19623 36.7468 6.82086C36.9375 4.93561 35.3463 3.93875 33.984 3.67825Z" fill="#076DC1"></path> </svg> 